<svg width="101" height="100" viewBox="0 0 101 100" fill="none" xmlns="http://www.w3.org/2000/svg">
<circle cx="50.5" cy="50" r="50" fill="url(#paint0_linear_1924_173)"/>
<g clip-path="url(#clip0_1924_173)">
<path d="M65.0158 55.9732C63.9921 54.9074 62.7575 54.3375 61.4489 54.3375C60.1509 54.3375 58.9057 54.8968 57.8398 55.9627L54.5051 59.2868C54.2308 59.1391 53.9564 59.0019 53.6926 58.8647C53.3127 58.6747 52.9539 58.4953 52.6478 58.3054C49.5242 56.3214 46.6855 53.736 43.9629 50.3907C42.6437 48.7234 41.7573 47.3199 41.1136 45.8952C41.9789 45.1038 42.7809 44.2807 43.5618 43.4892C43.8573 43.1937 44.1528 42.8877 44.4483 42.5922C46.6644 40.3761 46.6644 37.5057 44.4483 35.2896L41.5674 32.4087C41.2402 32.0816 40.9025 31.7439 40.5859 31.4062C39.9528 30.7519 39.2879 30.0765 38.602 29.4434C37.5784 28.4303 36.3543 27.8921 35.0668 27.8921C33.7794 27.8921 32.5341 28.4303 31.4788 29.4434C31.4683 29.4539 31.4683 29.4539 31.4577 29.4645L27.8698 33.0841C26.519 34.4349 25.7486 36.0811 25.5798 37.9912C25.3265 41.0726 26.2341 43.943 26.9306 45.8214C28.6401 50.433 31.1939 54.7069 35.0035 59.2868C39.6256 64.8059 45.187 69.1643 51.5398 72.2351C53.9669 73.3854 57.2067 74.7467 60.8263 74.9789C61.0479 74.9894 61.2801 75 61.4911 75C63.9288 75 65.9761 74.1241 67.5801 72.3829C67.5907 72.3618 67.6118 72.3512 67.6223 72.3301C68.1711 71.6653 68.8042 71.0638 69.4691 70.42C69.9228 69.9874 70.3872 69.5336 70.8409 69.0587C71.8857 67.9718 72.4344 66.7054 72.4344 65.4074C72.4344 64.0989 71.8751 62.8431 70.8093 61.7878L65.0158 55.9732ZM68.7937 67.0853C68.7831 67.0959 68.7831 67.0853 68.7937 67.0853C68.3821 67.5286 67.96 67.9296 67.5062 68.3728C66.8203 69.0271 66.1238 69.713 65.4695 70.4834C64.4037 71.6231 63.1479 72.1613 61.5017 72.1613C61.3434 72.1613 61.1745 72.1613 61.0162 72.1507C57.8821 71.9502 54.9695 70.7261 52.785 69.6813C46.8121 66.7899 41.5674 62.6848 37.209 57.4823C33.6105 53.145 31.2045 49.135 29.611 44.8294C28.6296 42.2017 28.2708 40.1545 28.4291 38.2233C28.5346 36.9886 29.0095 35.965 29.8854 35.0891L33.4839 31.4906C34.001 31.0052 34.5497 30.7414 35.0879 30.7414C35.7527 30.7414 36.2909 31.1424 36.6286 31.4801C36.6392 31.4906 36.6497 31.5012 36.6603 31.5117C37.304 32.1132 37.9161 32.7358 38.5598 33.4007C38.8869 33.7384 39.2246 34.0761 39.5623 34.4243L42.4432 37.3052C43.5618 38.4238 43.5618 39.458 42.4432 40.5766C42.1372 40.8826 41.8417 41.1887 41.5357 41.4841C40.6493 42.3917 39.805 43.2359 38.8869 44.059C38.8658 44.0801 38.8447 44.0907 38.8342 44.1118C37.9266 45.0194 38.0955 45.9058 38.2854 46.5073C38.296 46.539 38.3065 46.5706 38.3171 46.6023C39.0663 48.4174 40.1216 50.1269 41.7256 52.1636L41.7362 52.1742C44.6488 55.7621 47.7197 58.5586 51.1071 60.7009C51.5398 60.9752 51.983 61.1969 52.4051 61.4079C52.785 61.5979 53.1438 61.7773 53.4499 61.9672C53.4921 61.9883 53.5343 62.02 53.5765 62.0411C53.9353 62.2205 54.273 62.3049 54.6212 62.3049C55.4971 62.3049 56.0459 61.7562 56.2253 61.5768L59.8343 57.9677C60.1931 57.6089 60.763 57.1762 61.4278 57.1762C62.0821 57.1762 62.6203 57.5878 62.9474 57.9466C62.958 57.9571 62.958 57.9571 62.9685 57.9677L68.7831 63.7823C69.8701 64.8587 69.8701 65.9667 68.7937 67.0853Z" fill="white"/>
<path d="M52.5213 36.8938C55.2861 37.3581 57.7977 38.6666 59.8027 40.6717C61.8078 42.6767 63.1058 45.1883 63.5807 47.9531C63.6967 48.6496 64.2983 49.1351 64.9842 49.1351C65.0686 49.1351 65.1425 49.1245 65.2269 49.1139C66.0078 48.9873 66.5249 48.2486 66.3983 47.4677C65.8284 44.1225 64.2455 41.0727 61.8289 38.6561C59.4123 36.2395 56.3625 34.6566 53.0173 34.0867C52.2364 33.9601 51.5082 34.4772 51.371 35.2475C51.2338 36.0179 51.7404 36.7671 52.5213 36.8938Z" fill="white"/>
<path d="M75.442 47.0563C74.5028 41.5477 71.9068 36.5351 67.9178 32.5461C63.9289 28.5572 58.9163 25.9612 53.4077 25.022C52.6373 24.8848 51.9092 25.4124 51.772 26.1828C51.6454 26.9637 52.1624 27.6918 52.9434 27.829C57.861 28.6627 62.3459 30.9949 65.9128 34.5512C69.4797 38.118 71.8013 42.603 72.635 47.5206C72.751 48.2171 73.3526 48.7025 74.0385 48.7025C74.1229 48.7025 74.1968 48.692 74.2812 48.6814C75.0516 48.5654 75.5792 47.8267 75.442 47.0563Z" fill="white"/>
</g>
<circle cx="50.5" cy="50" r="50" fill="#B69B79"/>
<g clip-path="url(#clip1_1924_173)">
<path d="M57.8979 52.0752L53.7104 56.277C52.0122 57.9811 49.0243 58.0178 47.2895 56.277L43.1017 52.0752L28.061 67.1646C28.6209 67.4235 29.2382 67.578 29.8944 67.578H71.1054C71.7616 67.578 72.3787 67.4237 72.9384 67.1647L57.8979 52.0752Z" fill="white"/>
<path d="M71.1054 32.4219H29.8945C29.2382 32.4219 28.6209 32.5764 28.0613 32.8353L44.1333 48.9605C44.1343 48.9616 44.1356 48.9618 44.1367 48.9629C44.1377 48.964 44.1379 48.9654 44.1379 48.9654L49.3638 54.2086C49.9189 54.7637 51.0812 54.7637 51.6363 54.2086L56.8611 48.9663C56.8611 48.9663 56.8624 48.964 56.8634 48.9629C56.8634 48.9629 56.8658 48.9616 56.8668 48.9605L72.9384 32.8352C72.3788 32.5762 71.7617 32.4219 71.1054 32.4219Z" fill="white"/>
<path d="M25.9674 34.884C25.6777 35.4698 25.5 36.12 25.5 36.8165V63.1836C25.5 63.8801 25.6775 64.5303 25.9673 65.1161L41.034 50.0005L25.9674 34.884Z" fill="white"/>
<path d="M75.0326 34.8838L59.9661 50.0005L75.0326 65.1162C75.3222 64.5305 75.4999 63.8803 75.4999 63.1836V36.8164C75.4999 36.1197 75.3222 35.4695 75.0326 34.8838Z" fill="white"/>
</g>
<defs>
<linearGradient id="paint0_linear_1924_173" x1="-6.85368" y1="49.8215" x2="93.219" y2="50.2216" gradientUnits="userSpaceOnUse">
<stop stop-color="#FBD8C7"/>
<stop offset="0.0391738" stop-color="#F7BA9D"/>
<stop offset="0.0794" stop-color="#F39F7B"/>
<stop offset="0.1062" stop-color="#F08860"/>
<stop offset="0.1349" stop-color="#ED764D"/>
<stop offset="0.1667" stop-color="#EB683F"/>
<stop offset="0.2037" stop-color="#EA6138"/>
<stop offset="0.2586" stop-color="#EA5E36"/>
<stop offset="0.2822" stop-color="#E9573E"/>
<stop offset="0.3374" stop-color="#E7484B"/>
<stop offset="0.3931" stop-color="#E63C52"/>
<stop offset="0.4488" stop-color="#E63556"/>
<stop offset="0.5047" stop-color="#E63257"/>
<stop offset="0.5218" stop-color="#E1315A"/>
<stop offset="0.6454" stop-color="#BD2D6B"/>
<stop offset="0.7593" stop-color="#9E2977"/>
<stop offset="0.86" stop-color="#86277E"/>
<stop offset="0.9437" stop-color="#772582"/>
<stop offset="1" stop-color="#722584"/>
</linearGradient>
<clipPath id="clip0_1924_173">
<rect width="50" height="50" fill="white" transform="translate(25.5 25)"/>
</clipPath>
<clipPath id="clip1_1924_173">
<rect width="50" height="50" fill="white" transform="translate(25.5 25)"/>
</clipPath>
</defs>
</svg>
