<svg width="100" height="100" viewBox="0 0 100 100" fill="none" xmlns="http://www.w3.org/2000/svg">
<circle cx="50" cy="50" r="50" fill="#B69B79"/>
<g clip-path="url(#clip0_1924_162)">
<path d="M64.5155 55.9732C63.4919 54.9074 62.2572 54.3375 60.9487 54.3375C59.6507 54.3375 58.4054 54.8968 57.3396 55.9627L54.0049 59.2868C53.7305 59.1391 53.4561 59.0019 53.1923 58.8647C52.8124 58.6747 52.4536 58.4953 52.1476 58.3054C49.024 56.3214 46.1852 53.736 43.4626 50.3907C42.1435 48.7234 41.2571 47.3199 40.6133 45.8952C41.4787 45.1038 42.2807 44.2807 43.0616 43.4892C43.3571 43.1937 43.6526 42.8877 43.948 42.5922C46.1641 40.3761 46.1641 37.5057 43.948 35.2896L41.0671 32.4087C40.74 32.0816 40.4023 31.7439 40.0857 31.4062C39.4525 30.7519 38.7877 30.0765 38.1018 29.4434C37.0781 28.4303 35.854 27.8921 34.5666 27.8921C33.2791 27.8921 32.0339 28.4303 30.9786 29.4434C30.968 29.4539 30.968 29.4539 30.9575 29.4645L27.3695 33.0841C26.0188 34.4349 25.2484 36.0811 25.0796 37.9912C24.8263 41.0726 25.7338 43.943 26.4303 45.8214C28.1399 50.433 30.6937 54.7069 34.5032 59.2868C39.1254 64.8059 44.6867 69.1643 51.0395 72.2351C53.4667 73.3854 56.7064 74.7467 60.3261 74.9789C60.5477 74.9894 60.7798 75 60.9909 75C63.4286 75 65.4758 74.1241 67.0799 72.3829C67.0904 72.3618 67.1115 72.3512 67.1221 72.3301C67.6708 71.6653 68.304 71.0638 68.9688 70.42C69.4226 69.9874 69.8869 69.5336 70.3407 69.0587C71.3854 67.9718 71.9342 66.7054 71.9342 65.4074C71.9342 64.0989 71.3749 62.8431 70.309 61.7878L64.5155 55.9732ZM68.2934 67.0853C68.2829 67.0959 68.2829 67.0853 68.2934 67.0853C67.8819 67.5286 67.4598 67.9296 67.006 68.3728C66.3201 69.0271 65.6236 69.713 64.9693 70.4834C63.9035 71.6231 62.6477 72.1613 61.0014 72.1613C60.8431 72.1613 60.6743 72.1613 60.516 72.1507C57.3818 71.9502 54.4692 70.7261 52.2848 69.6813C46.3119 66.7899 41.0671 62.6848 36.7088 57.4823C33.1103 53.145 30.7042 49.135 29.1107 44.8294C28.1293 42.2017 27.7705 40.1545 27.9288 38.2233C28.0344 36.9886 28.5092 35.965 29.3851 35.0891L32.9836 31.4906C33.5007 31.0052 34.0495 30.7414 34.5877 30.7414C35.2525 30.7414 35.7907 31.1424 36.1284 31.4801C36.1389 31.4906 36.1495 31.5012 36.16 31.5117C36.8038 32.1132 37.4158 32.7358 38.0596 33.4007C38.3867 33.7384 38.7244 34.0761 39.0621 34.4243L41.943 37.3052C43.0616 38.4238 43.0616 39.458 41.943 40.5766C41.637 40.8826 41.3415 41.1887 41.0355 41.4841C40.149 42.3917 39.3048 43.2359 38.3867 44.059C38.3656 44.0801 38.3445 44.0907 38.3339 44.1118C37.4264 45.0194 37.5952 45.9058 37.7852 46.5073C37.7957 46.539 37.8063 46.5706 37.8168 46.6023C38.5661 48.4174 39.6214 50.1269 41.2254 52.1636L41.236 52.1742C44.1485 55.7621 47.2194 58.5586 50.6069 60.7009C51.0395 60.9752 51.4828 61.1969 51.9049 61.4079C52.2848 61.5979 52.6436 61.7773 52.9496 61.9672C52.9918 61.9883 53.034 62.02 53.0762 62.0411C53.435 62.2205 53.7727 62.3049 54.121 62.3049C54.9969 62.3049 55.5456 61.7562 55.725 61.5768L59.3341 57.9677C59.6929 57.6089 60.2627 57.1762 60.9276 57.1762C61.5818 57.1762 62.12 57.5878 62.4472 57.9466C62.4577 57.9571 62.4577 57.9571 62.4683 57.9677L68.2829 63.7823C69.3698 64.8587 69.3698 65.9667 68.2934 67.0853Z" fill="white"/>
<path d="M52.0208 36.8938C54.7856 37.3581 57.2972 38.6666 59.3023 40.6717C61.3073 42.6767 62.6053 45.1883 63.0802 47.9531C63.1963 48.6496 63.7978 49.1351 64.4837 49.1351C64.5681 49.1351 64.642 49.1245 64.7264 49.1139C65.5073 48.9873 66.0244 48.2486 65.8978 47.4677C65.3279 44.1225 63.745 41.0727 61.3284 38.6561C58.9118 36.2395 55.862 34.6566 52.5168 34.0867C51.7359 33.9601 51.0077 34.4772 50.8705 35.2475C50.7334 36.0179 51.2399 36.7671 52.0208 36.8938Z" fill="white"/>
<path d="M74.9415 47.0563C74.0023 41.5477 71.4063 36.5351 67.4174 32.5461C63.4284 28.5572 58.4158 25.9612 52.9072 25.022C52.1368 24.8848 51.4087 25.4124 51.2715 26.1828C51.1449 26.9637 51.662 27.6918 52.4429 27.829C57.3605 28.6627 61.8455 30.9949 65.4123 34.5512C68.9792 38.118 71.3008 42.603 72.1345 47.5206C72.2506 48.2171 72.8521 48.7025 73.538 48.7025C73.6224 48.7025 73.6963 48.692 73.7807 48.6814C74.5511 48.5654 75.0787 47.8267 74.9415 47.0563Z" fill="white"/>
</g>
<defs>
<clipPath id="clip0_1924_162">
<rect width="50" height="50" fill="white" transform="translate(25 25)"/>
</clipPath>
</defs>
</svg>
